<svg id="Layer_1" data-name="Layer 1" xmlns="http://www.w3.org/2000/svg" xmlns:xlink="http://www.w3.org/1999/xlink" width="277" height="266" viewBox="0 0 277 266"><defs><clipPath id="clip-path"><rect width="277" height="266" style="fill:none"/></clipPath></defs><g style="clip-path:url(#clip-path)"><g id="Artboard_1" data-name="Artboard 1"><g id="Group_1" data-name="Group 1"><rect id="Rectangle_7" data-name="Rectangle 7" x="28.56" y="23.06" width="219.88" height="219.88" rx="70" style="fill:#d5e2f2"/><ellipse id="Ellipse_9" data-name="Ellipse 9" cx="96.59" cy="146.63" rx="19.37" ry="68.66" transform="matrix(0.97, -0.26, 0.26, 0.97, -34.68, 30.02)" style="fill:#fff"/><ellipse id="Ellipse_10" data-name="Ellipse 10" cx="180.42" cy="146.63" rx="68.66" ry="19.37" transform="translate(-7.94 282.92) rotate(-74.99)" style="fill:#fff"/><ellipse id="Ellipse_11" data-name="Ellipse 11" cx="100.28" cy="88.28" rx="27.72" ry="20.09" transform="translate(-15.01 20.77) rotate(-11.01)" style="fill:#fff"/><ellipse id="Ellipse_12" data-name="Ellipse 12" cx="176.3" cy="88.26" rx="20.08" ry="27.71" transform="translate(67.2 252.49) rotate(-83)" style="fill:#fff"/><ellipse id="Ellipse_13" data-name="Ellipse 13" cx="111.08" cy="89.95" rx="20.08" ry="27.71" transform="translate(8.26 189.24) rotate(-83)" style="fill:#fff"/><ellipse id="Ellipse_14" data-name="Ellipse 14" cx="163.06" cy="91.27" rx="27.71" ry="20.08" transform="translate(-20.83 58.06) rotate(-19)" style="fill:#fff"/><ellipse id="Ellipse_15" data-name="Ellipse 15" cx="117.42" cy="91.99" rx="23.29" ry="16.4" transform="translate(-23.55 43.24) rotate(-19)" style="fill:#fff"/><ellipse id="Ellipse_16" data-name="Ellipse 16" cx="154.2" cy="90.52" rx="23.29" ry="16.4" transform="translate(-21.07 55.13) rotate(-19)" style="fill:#fff"/><ellipse id="Ellipse_17" data-name="Ellipse 17" cx="139.36" cy="89.41" rx="11.99" ry="16.92" transform="translate(40.44 222.2) rotate(-86)" style="fill:#fff"/><ellipse id="Ellipse_18" data-name="Ellipse 18" cx="126.02" cy="82.53" rx="7.82" ry="13.49" transform="translate(34.9 202.49) rotate(-86)" style="fill:#fff"/><ellipse id="Ellipse_19" data-name="Ellipse 19" cx="150.05" cy="83.51" rx="7.82" ry="13.49" transform="translate(56.27 227.37) rotate(-86)" style="fill:#fff"/><ellipse id="Ellipse_20" data-name="Ellipse 20" cx="160.96" cy="159.54" rx="14.85" ry="53.44" transform="translate(-13.27 14.61) rotate(-4.99)" style="fill:#fff"/><ellipse id="Ellipse_21" data-name="Ellipse 21" cx="116.6" cy="158.38" rx="53.45" ry="14.85" transform="translate(-51.34 260.73) rotate(-85)" style="fill:#fff"/><ellipse id="Ellipse_22" data-name="Ellipse 22" cx="124.8" cy="146.04" rx="25.25" ry="12.4" transform="translate(-31.56 257.64) rotate(-85)" style="fill:#fff"/><ellipse id="Ellipse_23" data-name="Ellipse 23" cx="154.2" cy="146.62" rx="25.25" ry="12.4" transform="translate(-5.31 287.45) rotate(-85)" style="fill:#fff"/><ellipse id="Ellipse_24" data-name="Ellipse 24" cx="131.32" cy="139.5" rx="25.25" ry="12.4" transform="translate(-19.1 258.16) rotate(-85)" style="fill:#fff"/><ellipse id="Ellipse_25" data-name="Ellipse 25" cx="146.47" cy="142.44" rx="12.41" ry="25.26" transform="translate(-22.55 27.65) rotate(-10.02)" style="fill:#fff"/><ellipse id="Ellipse_26" data-name="Ellipse 26" cx="136.06" cy="154.08" rx="9.95" ry="8.58" transform="translate(-24.73 26.02) rotate(-10.02)" style="fill:#fff"/><ellipse id="Ellipse_27" data-name="Ellipse 27" cx="142.61" cy="154.08" rx="9.95" ry="8.58" transform="translate(-24.63 27.16) rotate(-10.02)" style="fill:#fff"/><ellipse id="Ellipse_28" data-name="Ellipse 28" cx="137.81" cy="111.9" rx="39.73" ry="20.96" transform="translate(-17.36 25.68) rotate(-10.02)" style="fill:#fff"/><path id="Path_8" data-name="Path 8" d="M133.05,88.26l5.55,1.87h4.47l5-1.87" style="fill:none;stroke:#f4f4f4;stroke-width:4px"/><rect id="Rectangle_9" data-name="Rectangle 9" x="28.56" y="23.06" width="219.88" height="219.88" rx="70" style="fill:#d5e2f2"/><ellipse id="Ellipse_49" data-name="Ellipse 49" cx="96.59" cy="146.63" rx="19.37" ry="68.66" transform="matrix(0.97, -0.26, 0.26, 0.97, -34.68, 30.02)" style="fill:#fff"/><ellipse id="Ellipse_50" data-name="Ellipse 50" cx="180.42" cy="146.63" rx="68.66" ry="19.37" transform="translate(-7.94 282.92) rotate(-74.99)" style="fill:#fff"/><ellipse id="Ellipse_51" data-name="Ellipse 51" cx="100.28" cy="88.28" rx="27.72" ry="20.09" transform="translate(-15.01 20.77) rotate(-11.01)" style="fill:#fff"/><ellipse id="Ellipse_52" data-name="Ellipse 52" cx="176.3" cy="88.26" rx="20.08" ry="27.71" transform="translate(67.2 252.49) rotate(-83)" style="fill:#fff"/><ellipse id="Ellipse_53" data-name="Ellipse 53" cx="111.08" cy="89.95" rx="20.08" ry="27.71" transform="translate(8.26 189.24) rotate(-83)" style="fill:#fff"/><ellipse id="Ellipse_54" data-name="Ellipse 54" cx="163.06" cy="91.27" rx="27.71" ry="20.08" transform="translate(-20.83 58.06) rotate(-19)" style="fill:#fff"/><ellipse id="Ellipse_55" data-name="Ellipse 55" cx="117.42" cy="91.99" rx="23.29" ry="16.4" transform="translate(-23.55 43.24) rotate(-19)" style="fill:#fff"/><ellipse id="Ellipse_56" data-name="Ellipse 56" cx="154.2" cy="90.52" rx="23.29" ry="16.4" transform="translate(-21.07 55.13) rotate(-19)" style="fill:#fff"/><ellipse id="Ellipse_57" data-name="Ellipse 57" cx="139.36" cy="89.41" rx="11.99" ry="16.92" transform="translate(40.44 222.2) rotate(-86)" style="fill:#fff"/><ellipse id="Ellipse_58" data-name="Ellipse 58" cx="126.02" cy="82.53" rx="7.82" ry="13.49" transform="translate(34.9 202.49) rotate(-86)" style="fill:#fff"/><ellipse id="Ellipse_59" data-name="Ellipse 59" cx="150.05" cy="83.51" rx="7.82" ry="13.49" transform="translate(56.27 227.37) rotate(-86)" style="fill:#fff"/><ellipse id="Ellipse_60" data-name="Ellipse 60" cx="160.96" cy="159.54" rx="14.85" ry="53.44" transform="translate(-13.27 14.61) rotate(-4.99)" style="fill:#fff"/><ellipse id="Ellipse_61" data-name="Ellipse 61" cx="116.6" cy="158.38" rx="53.45" ry="14.85" transform="translate(-51.34 260.73) rotate(-85)" style="fill:#fff"/><ellipse id="Ellipse_62" data-name="Ellipse 62" cx="124.8" cy="146.04" rx="25.25" ry="12.4" transform="translate(-31.56 257.64) rotate(-85)" style="fill:#fff"/><ellipse id="Ellipse_63" data-name="Ellipse 63" cx="154.2" cy="146.62" rx="25.25" ry="12.4" transform="translate(-5.31 287.45) rotate(-85)" style="fill:#fff"/><ellipse id="Ellipse_64" data-name="Ellipse 64" cx="131.32" cy="139.5" rx="25.25" ry="12.4" transform="translate(-19.1 258.16) rotate(-85)" style="fill:#fff"/><ellipse id="Ellipse_65" data-name="Ellipse 65" cx="146.47" cy="142.44" rx="12.41" ry="25.26" transform="translate(-22.55 27.65) rotate(-10.02)" style="fill:#fff"/><ellipse id="Ellipse_66" data-name="Ellipse 66" cx="136.06" cy="154.08" rx="9.95" ry="8.58" transform="translate(-24.73 26.02) rotate(-10.02)" style="fill:#fff"/><ellipse id="Ellipse_67" data-name="Ellipse 67" cx="142.61" cy="154.08" rx="9.95" ry="8.58" transform="translate(-24.63 27.16) rotate(-10.02)" style="fill:#fff"/><ellipse id="Ellipse_68" data-name="Ellipse 68" cx="137.81" cy="111.9" rx="39.73" ry="20.96" transform="translate(-17.36 25.68) rotate(-10.02)" style="fill:#fff"/><path id="Path_199" data-name="Path 199" d="M133.05,88.26l5.55,1.87h4.47l5-1.87" style="fill:none;stroke:#f4f4f4;stroke-width:3px"/></g><path id="Path_198" data-name="Path 198" d="M85.89,96l3.28-8.22,6.23-4.87,7.86-1.78,9,1.78,7,2.67" style="fill:none;stroke:#f4f4f4;stroke-linecap:round;stroke-width:3px"/></g></g></svg>