<svg xmlns="http://www.w3.org/2000/svg" xmlns:xlink="http://www.w3.org/1999/xlink" width="277" height="266" viewBox="0 0 277 266">
  <defs>
    <clipPath id="clip-Artboard_1">
      <rect width="277" height="266"/>
    </clipPath>
  </defs>
  <g id="Artboard_1" data-name="Artboard – 1" clip-path="url(#clip-Artboard_1)">
    <rect width="277" height="266" fill="#fff"/>
    <g id="Group_1" data-name="Group 1" transform="translate(68.091 69.063)">
      <rect id="Rectangle_7" data-name="Rectangle 7" width="219.875" height="219.875" rx="70" transform="translate(-39.528 -46)" fill="#d5e2f2"/>
      <ellipse id="Ellipse_9" data-name="Ellipse 9" cx="19.369" cy="68.651" rx="19.369" ry="68.651" transform="matrix(0.966, -0.259, 0.259, 0.966, -7.995, 16.262)" fill="#fff"/>
      <ellipse id="Ellipse_10" data-name="Ellipse 10" cx="19.369" cy="68.651" rx="19.369" ry="68.651" transform="matrix(0.966, 0.259, -0.259, 0.966, 111.395, 6.235)" fill="#fff"/>
      <ellipse id="Ellipse_11" data-name="Ellipse 11" cx="20.078" cy="27.706" rx="20.078" ry="27.706" transform="matrix(0.191, 0.982, -0.982, 0.191, 55.564, -5.795)" fill="#fff"/>
      <ellipse id="Ellipse_12" data-name="Ellipse 12" cx="20.078" cy="27.706" rx="20.078" ry="27.706" transform="translate(138.151 2.649) rotate(97)" fill="#fff"/>
      <ellipse id="Ellipse_13" data-name="Ellipse 13" cx="20.078" cy="27.706" rx="20.078" ry="27.706" transform="translate(72.933 4.34) rotate(97)" fill="#fff"/>
      <ellipse id="Ellipse_14" data-name="Ellipse 14" cx="20.078" cy="27.706" rx="20.078" ry="27.706" transform="translate(114.625 -5.795) rotate(71)" fill="#fff"/>
      <ellipse id="Ellipse_15" data-name="Ellipse 15" cx="16.4" cy="23.292" rx="16.4" ry="23.292" transform="translate(66.012 -0.16) rotate(71)" fill="#fff"/>
      <ellipse id="Ellipse_16" data-name="Ellipse 16" cx="16.4" cy="23.292" rx="16.4" ry="23.292" transform="translate(102.789 -1.631) rotate(71)" fill="#fff"/>
      <ellipse id="Ellipse_17" data-name="Ellipse 17" cx="11.987" cy="16.918" rx="11.987" ry="16.918" transform="translate(88.98 9.574) rotate(94)" fill="#fff"/>
      <ellipse id="Ellipse_18" data-name="Ellipse 18" cx="7.819" cy="13.485" rx="7.819" ry="13.485" transform="translate(71.929 6.61) rotate(94)" fill="#fff"/>
      <ellipse id="Ellipse_19" data-name="Ellipse 19" cx="7.819" cy="13.485" rx="7.819" ry="13.485" transform="translate(95.957 7.59) rotate(94)" fill="#fff"/>
      <ellipse id="Ellipse_20" data-name="Ellipse 20" cx="14.854" cy="53.45" rx="14.854" ry="53.45" transform="matrix(0.996, -0.087, 0.087, 0.996, 73.423, 38.531)" fill="#fff"/>
      <ellipse id="Ellipse_21" data-name="Ellipse 21" cx="14.854" cy="53.45" rx="14.854" ry="53.45" transform="translate(38.366 34.775) rotate(5)" fill="#fff"/>
      <ellipse id="Ellipse_22" data-name="Ellipse 22" cx="12.403" cy="25.254" rx="12.403" ry="25.254" transform="translate(46.557 50.743) rotate(5)" fill="#fff"/>
      <ellipse id="Ellipse_23" data-name="Ellipse 23" cx="12.403" cy="25.254" rx="12.403" ry="25.254" transform="translate(75.951 51.322) rotate(5)" fill="#fff"/>
      <ellipse id="Ellipse_24" data-name="Ellipse 24" cx="12.403" cy="25.254" rx="12.403" ry="25.254" transform="translate(53.072 44.197) rotate(5)" fill="#fff"/>
      <ellipse id="Ellipse_25" data-name="Ellipse 25" cx="12.403" cy="25.254" rx="12.403" ry="25.254" transform="matrix(0.985, -0.174, 0.174, 0.985, 61.767, 50.661)" fill="#fff"/>
      <ellipse id="Ellipse_26" data-name="Ellipse 26" cx="9.951" cy="8.581" rx="9.951" ry="8.581" transform="matrix(0.985, -0.174, 0.174, 0.985, 56.672, 78.301)" fill="#fff"/>
      <ellipse id="Ellipse_27" data-name="Ellipse 27" cx="9.951" cy="8.581" rx="9.951" ry="8.581" transform="matrix(0.985, -0.174, 0.174, 0.985, 63.226, 78.301)" fill="#fff"/>
      <ellipse id="Ellipse_28" data-name="Ellipse 28" cx="39.723" cy="20.952" rx="39.723" ry="20.952" transform="matrix(0.985, -0.174, 0.174, 0.985, 26.946, 29.109)" fill="#fff"/>
      <path id="Path_8" data-name="Path 8" d="M1198.511,1982.454l5.547,1.862h4.473l4.963-1.862" transform="translate(-1133.55 -1963.253)" fill="none" stroke="#f4f4f4" stroke-width="4"/>
      <rect id="Rectangle_9" data-name="Rectangle 9" width="219.875" height="219.875" rx="70" transform="translate(-39.528 -46)" fill="#d5e2f2"/>
      <ellipse id="Ellipse_49" data-name="Ellipse 49" cx="19.369" cy="68.651" rx="19.369" ry="68.651" transform="matrix(0.966, -0.259, 0.259, 0.966, -7.995, 16.262)" fill="#fff"/>
      <ellipse id="Ellipse_50" data-name="Ellipse 50" cx="19.369" cy="68.651" rx="19.369" ry="68.651" transform="matrix(0.966, 0.259, -0.259, 0.966, 111.395, 6.235)" fill="#fff"/>
      <ellipse id="Ellipse_51" data-name="Ellipse 51" cx="20.078" cy="27.706" rx="20.078" ry="27.706" transform="matrix(0.191, 0.982, -0.982, 0.191, 55.564, -5.795)" fill="#fff"/>
      <ellipse id="Ellipse_52" data-name="Ellipse 52" cx="20.078" cy="27.706" rx="20.078" ry="27.706" transform="translate(138.151 2.649) rotate(97)" fill="#fff"/>
      <ellipse id="Ellipse_53" data-name="Ellipse 53" cx="20.078" cy="27.706" rx="20.078" ry="27.706" transform="translate(72.933 4.34) rotate(97)" fill="#fff"/>
      <ellipse id="Ellipse_54" data-name="Ellipse 54" cx="20.078" cy="27.706" rx="20.078" ry="27.706" transform="translate(114.625 -5.795) rotate(71)" fill="#fff"/>
      <ellipse id="Ellipse_55" data-name="Ellipse 55" cx="16.4" cy="23.292" rx="16.4" ry="23.292" transform="translate(66.012 -0.16) rotate(71)" fill="#fff"/>
      <ellipse id="Ellipse_56" data-name="Ellipse 56" cx="16.4" cy="23.292" rx="16.4" ry="23.292" transform="translate(102.789 -1.631) rotate(71)" fill="#fff"/>
      <ellipse id="Ellipse_57" data-name="Ellipse 57" cx="11.987" cy="16.918" rx="11.987" ry="16.918" transform="translate(88.98 9.574) rotate(94)" fill="#fff"/>
      <ellipse id="Ellipse_58" data-name="Ellipse 58" cx="7.819" cy="13.485" rx="7.819" ry="13.485" transform="translate(71.929 6.61) rotate(94)" fill="#fff"/>
      <ellipse id="Ellipse_59" data-name="Ellipse 59" cx="7.819" cy="13.485" rx="7.819" ry="13.485" transform="translate(95.957 7.59) rotate(94)" fill="#fff"/>
      <ellipse id="Ellipse_60" data-name="Ellipse 60" cx="14.854" cy="53.45" rx="14.854" ry="53.45" transform="matrix(0.996, -0.087, 0.087, 0.996, 73.423, 38.531)" fill="#fff"/>
      <ellipse id="Ellipse_61" data-name="Ellipse 61" cx="14.854" cy="53.45" rx="14.854" ry="53.45" transform="translate(38.366 34.775) rotate(5)" fill="#fff"/>
      <ellipse id="Ellipse_62" data-name="Ellipse 62" cx="12.403" cy="25.254" rx="12.403" ry="25.254" transform="translate(46.557 50.743) rotate(5)" fill="#fff"/>
      <ellipse id="Ellipse_63" data-name="Ellipse 63" cx="12.403" cy="25.254" rx="12.403" ry="25.254" transform="translate(75.951 51.322) rotate(5)" fill="#fff"/>
      <ellipse id="Ellipse_64" data-name="Ellipse 64" cx="12.403" cy="25.254" rx="12.403" ry="25.254" transform="translate(53.072 44.197) rotate(5)" fill="#fff"/>
      <ellipse id="Ellipse_65" data-name="Ellipse 65" cx="12.403" cy="25.254" rx="12.403" ry="25.254" transform="matrix(0.985, -0.174, 0.174, 0.985, 61.767, 50.661)" fill="#fff"/>
      <ellipse id="Ellipse_66" data-name="Ellipse 66" cx="9.951" cy="8.581" rx="9.951" ry="8.581" transform="matrix(0.985, -0.174, 0.174, 0.985, 56.672, 78.301)" fill="#fff"/>
      <ellipse id="Ellipse_67" data-name="Ellipse 67" cx="9.951" cy="8.581" rx="9.951" ry="8.581" transform="matrix(0.985, -0.174, 0.174, 0.985, 63.226, 78.301)" fill="#fff"/>
      <ellipse id="Ellipse_68" data-name="Ellipse 68" cx="39.723" cy="20.952" rx="39.723" ry="20.952" transform="matrix(0.985, -0.174, 0.174, 0.985, 26.946, 29.109)" fill="#fff"/>
      <path id="Path_199" data-name="Path 199" d="M1198.511,1982.454l5.547,1.862h4.473l4.963-1.862" transform="translate(-1133.55 -1963.253)" fill="none" stroke="#f4f4f4" stroke-width="3"/>
    </g>
    <path id="Path_198" data-name="Path 198" d="M1083.471,1977.573l3.28-8.216,6.23-4.871,7.866-1.782,8.984,1.782,6.975,2.67" transform="translate(-997.585 -1881.573)" fill="none" stroke="#f4f4f4" stroke-linecap="round" stroke-width="3"/>
  </g>
</svg>
